<svg width="21" height="20" viewBox="0 0 21 20" fill="none" xmlns="http://www.w3.org/2000/svg">
<path d="M6.375 16.375C6.65114 16.375 6.875 16.5989 6.875 16.875C6.875 17.1511 6.65114 17.375 6.375 17.375C6.09886 17.375 5.875 17.1511 5.875 16.875C5.875 16.5989 6.09886 16.375 6.375 16.375Z" fill="white" stroke="white" stroke-width="1.5"/>
<path d="M14.5 18.125C15.1904 18.125 15.75 17.5654 15.75 16.875C15.75 16.1846 15.1904 15.625 14.5 15.625C13.8096 15.625 13.25 16.1846 13.25 16.875C13.25 17.5654 13.8096 18.125 14.5 18.125Z" fill="white"/>
<path d="M3.42969 5.625H17.4453L15.3828 12.8437C15.3092 13.1057 15.1516 13.3363 14.9343 13.5C14.7169 13.6638 14.4518 13.7516 14.1797 13.75H6.69531C6.42319 13.7516 6.15808 13.6638 5.94072 13.5C5.72336 13.3363 5.56578 13.1057 5.49219 12.8437L2.66406 2.95313C2.62669 2.82246 2.54775 2.70754 2.4392 2.62578C2.33065 2.54401 2.1984 2.49986 2.0625 2.5H0.75" stroke="white" stroke-width="1.5" stroke-linecap="round" stroke-linejoin="round"/>
</svg>
