<svg width="186" height="36" viewBox="0 0 186 36" fill="none" xmlns="http://www.w3.org/2000/svg">
<rect width="186" height="36" rx="2" fill="#F3DE6D"/>
<path d="M14.976 24V14.792H12.744V13.824C13.432 13.824 13.968 13.7733 14.352 13.672C14.7413 13.5707 15.016 13.416 15.176 13.208C15.3413 13 15.432 12.7413 15.448 12.432H16.504V24H14.976ZM23.8116 12.272C24.4516 12.272 25.041 12.392 25.5796 12.632C26.1236 12.8667 26.5743 13.2107 26.9316 13.664C27.289 14.112 27.5103 14.6533 27.5956 15.288H26.2036C26.049 14.7387 25.7663 14.304 25.3556 13.984C24.9503 13.664 24.4436 13.504 23.8356 13.504C22.8116 13.504 22.0436 13.936 21.5316 14.8C21.025 15.6587 20.8196 16.8987 20.9156 18.52C21.1343 17.9333 21.513 17.4613 22.0516 17.104C22.5956 16.7413 23.209 16.56 23.8916 16.56C24.649 16.56 25.313 16.7093 25.8836 17.008C26.4596 17.3013 26.9076 17.7227 27.2276 18.272C27.5476 18.816 27.7076 19.4667 27.7076 20.224C27.7076 20.9973 27.5423 21.6827 27.2116 22.28C26.8863 22.872 26.4223 23.336 25.8196 23.672C25.217 24.008 24.505 24.176 23.6836 24.176C22.7876 24.176 22.009 23.944 21.3476 23.48C20.6916 23.016 20.1823 22.3547 19.8196 21.496C19.4623 20.632 19.2836 19.5973 19.2836 18.392C19.2836 17.1547 19.457 16.0773 19.8036 15.16C20.1556 14.2427 20.6676 13.5333 21.3396 13.032C22.0116 12.5253 22.8356 12.272 23.8116 12.272ZM23.6516 17.76C23.2303 17.76 22.825 17.8613 22.4356 18.064C22.0516 18.2613 21.737 18.5227 21.4916 18.848C21.2516 19.1733 21.1316 19.5333 21.1316 19.928C21.1263 20.5147 21.2276 21.0373 21.4356 21.496C21.649 21.9493 21.945 22.3067 22.3236 22.568C22.7076 22.824 23.1556 22.952 23.6676 22.952C24.1423 22.952 24.5636 22.84 24.9316 22.616C25.2996 22.392 25.5876 22.08 25.7956 21.68C26.009 21.28 26.1156 20.8187 26.1156 20.296C26.1156 19.5067 25.9023 18.888 25.4756 18.44C25.049 17.9867 24.441 17.76 23.6516 17.76ZM32.6768 24.16C31.5994 24.16 30.7461 23.792 30.1168 23.056C29.4928 22.32 29.1808 21.2453 29.1808 19.832C29.1808 18.5413 29.4634 17.5093 30.0288 16.736C30.5994 15.9573 31.4448 15.568 32.5648 15.568C33.0874 15.568 33.5328 15.6533 33.9008 15.824C34.2741 15.9947 34.5728 16.1947 34.7968 16.424C35.0261 16.6533 35.1861 16.8587 35.2768 17.04V12.112H36.7648V24H35.6368L35.4768 22.304C35.4074 22.5173 35.2768 22.7707 35.0848 23.064C34.8928 23.3573 34.6048 23.6133 34.2208 23.832C33.8368 24.0507 33.3221 24.16 32.6768 24.16ZM32.9408 23.024C33.7781 23.024 34.3754 22.7707 34.7328 22.264C35.0954 21.752 35.2768 20.9173 35.2768 19.76C35.2661 18.7947 35.0848 18.048 34.7328 17.52C34.3808 16.9867 33.7941 16.72 32.9728 16.72C32.2954 16.72 31.7408 16.9627 31.3088 17.448C30.8821 17.928 30.6688 18.6987 30.6688 19.76C30.6688 20.7947 30.8608 21.5973 31.2448 22.168C31.6341 22.7387 32.1994 23.024 32.9408 23.024Z" fill="#191C1F"/>
<path d="M46.8433 16.056V17.936H45.0753V16.056H46.8433ZM46.8433 22.088V23.952H45.0753V22.088H46.8433Z" fill="#191C1F"/>
<path d="M54.992 24V22.624C54.992 22.032 55.1013 21.52 55.32 21.088C55.544 20.656 55.8373 20.28 56.2 19.96C56.568 19.6347 56.968 19.344 57.4 19.088C57.8373 18.832 58.272 18.5867 58.704 18.352C59.1413 18.112 59.5413 17.864 59.904 17.608C60.272 17.3467 60.5653 17.0533 60.784 16.728C61.0027 16.3973 61.112 16.008 61.112 15.56C61.112 14.9733 60.904 14.496 60.488 14.128C60.0773 13.76 59.52 13.576 58.816 13.576C58.0587 13.576 57.4507 13.7893 56.992 14.216C56.5333 14.6427 56.2747 15.2107 56.216 15.92H54.744C54.7547 15.2533 54.9173 14.6453 55.232 14.096C55.5467 13.5413 56.008 13.0987 56.616 12.768C57.224 12.4373 57.976 12.272 58.872 12.272C59.6453 12.272 60.3173 12.4107 60.888 12.688C61.4587 12.96 61.8987 13.344 62.208 13.84C62.5227 14.3307 62.68 14.904 62.68 15.56C62.68 16.1573 62.5707 16.6693 62.352 17.096C62.1333 17.5227 61.8427 17.8933 61.48 18.208C61.1227 18.5227 60.728 18.8027 60.296 19.048C59.8693 19.288 59.44 19.52 59.008 19.744C58.5813 19.968 58.1893 20.2053 57.832 20.456C57.4747 20.7067 57.1867 20.992 56.968 21.312C56.7493 21.632 56.64 22.0133 56.64 22.456V22.688H62.744V24H54.992ZM66.5073 24V14.792H64.2753V13.824C64.9633 13.824 65.4993 13.7733 65.8832 13.672C66.2726 13.5707 66.5473 13.416 66.7073 13.208C66.8726 13 66.9633 12.7413 66.9793 12.432H68.0353V24H66.5073ZM71.2709 24V12.112H72.7109V16.944C72.9189 16.6027 73.2362 16.2987 73.6629 16.032C74.0895 15.76 74.6335 15.624 75.2949 15.624C75.8335 15.624 76.3215 15.7253 76.7589 15.928C77.1962 16.1253 77.5429 16.408 77.7989 16.776C78.0549 17.144 78.1829 17.5813 78.1829 18.088V24H76.7029V18.384C76.7029 17.888 76.5322 17.5067 76.1909 17.24C75.8549 16.968 75.4149 16.832 74.8709 16.832C74.4975 16.832 74.1482 16.8933 73.8229 17.016C73.5029 17.1333 73.2415 17.3147 73.0389 17.56C72.8415 17.8 72.7429 18.1067 72.7429 18.48V24H71.2709Z" fill="#191C1F"/>
<path d="M88.8433 16.056V17.936H87.0753V16.056H88.8433ZM88.8433 22.088V23.952H87.0753V22.088H88.8433Z" fill="#191C1F"/>
<path d="M97.872 12.432H104.776L104.736 13.712H99.136L98.84 17.448C99.224 17.0907 99.6427 16.8373 100.096 16.688C100.555 16.5333 101.051 16.456 101.584 16.456C102.277 16.456 102.92 16.6 103.512 16.888C104.104 17.1707 104.579 17.592 104.936 18.152C105.293 18.7067 105.472 19.3947 105.472 20.216C105.472 21.016 105.299 21.7147 104.952 22.312C104.605 22.904 104.117 23.3627 103.488 23.688C102.859 24.0133 102.12 24.176 101.272 24.176C100.557 24.176 99.896 24.0507 99.288 23.8C98.68 23.5493 98.1573 23.2 97.72 22.752C97.288 22.304 96.9707 21.7893 96.768 21.208L98.048 20.672C98.3307 21.328 98.7307 21.8693 99.248 22.296C99.7653 22.7173 100.405 22.928 101.168 22.928C101.989 22.928 102.648 22.6907 103.144 22.216C103.645 21.736 103.896 21.0853 103.896 20.264C103.896 19.752 103.779 19.304 103.544 18.92C103.309 18.536 102.992 18.24 102.592 18.032C102.197 17.8187 101.76 17.712 101.28 17.712C100.811 17.712 100.381 17.7813 99.992 17.92C99.6027 18.0533 99.1893 18.3627 98.752 18.848C98.704 18.8693 98.6533 18.8667 98.6 18.84L97.352 18.448L97.872 12.432ZM106.994 12.432H115.114V13.712C114.703 14.2773 114.295 14.9147 113.89 15.624C113.49 16.3333 113.109 17.0773 112.746 17.856C112.383 18.6293 112.058 19.3947 111.77 20.152C111.482 20.9093 111.242 21.6187 111.05 22.28C110.863 22.9413 110.743 23.5147 110.69 24H109.082C109.167 23.472 109.319 22.8187 109.538 22.04C109.762 21.2613 110.055 20.4107 110.418 19.488C110.781 18.56 111.215 17.6027 111.722 16.616C112.234 15.6293 112.823 14.6613 113.49 13.712H106.994V12.432ZM116.927 24V15.728H118.351V16.928C118.58 16.56 118.892 16.2427 119.287 15.976C119.687 15.704 120.21 15.568 120.855 15.568C121.308 15.568 121.764 15.6827 122.223 15.912C122.682 16.1413 123.02 16.4773 123.239 16.92C123.495 16.5147 123.842 16.1893 124.279 15.944C124.716 15.6933 125.21 15.568 125.759 15.568C126.047 15.568 126.348 15.6133 126.663 15.704C126.978 15.7893 127.271 15.944 127.543 16.168C127.815 16.3867 128.034 16.6933 128.199 17.088C128.37 17.4773 128.455 17.9787 128.455 18.592V24H126.967V18.736C126.967 18.2347 126.887 17.8453 126.727 17.568C126.567 17.2907 126.356 17.0987 126.095 16.992C125.839 16.88 125.564 16.824 125.271 16.824C125.015 16.824 124.743 16.8747 124.455 16.976C124.167 17.0773 123.922 17.248 123.719 17.488C123.516 17.728 123.415 18.056 123.415 18.472V24H121.943V18.304C121.943 17.9787 121.855 17.7067 121.679 17.488C121.508 17.264 121.292 17.0987 121.031 16.992C120.775 16.88 120.519 16.824 120.263 16.824C119.98 16.824 119.695 16.8827 119.407 17C119.124 17.112 118.884 17.288 118.687 17.528C118.495 17.768 118.399 18.0827 118.399 18.472V24H116.927Z" fill="#191C1F"/>
<path d="M138.843 16.056V17.936H137.075V16.056H138.843ZM138.843 22.088V23.952H137.075V22.088H138.843Z" fill="#191C1F"/>
<path d="M146.992 24V22.624C146.992 22.032 147.101 21.52 147.32 21.088C147.544 20.656 147.837 20.28 148.2 19.96C148.568 19.6347 148.968 19.344 149.4 19.088C149.837 18.832 150.272 18.5867 150.704 18.352C151.141 18.112 151.541 17.864 151.904 17.608C152.272 17.3467 152.565 17.0533 152.784 16.728C153.003 16.3973 153.112 16.008 153.112 15.56C153.112 14.9733 152.904 14.496 152.488 14.128C152.077 13.76 151.52 13.576 150.816 13.576C150.059 13.576 149.451 13.7893 148.992 14.216C148.533 14.6427 148.275 15.2107 148.216 15.92H146.744C146.755 15.2533 146.917 14.6453 147.232 14.096C147.547 13.5413 148.008 13.0987 148.616 12.768C149.224 12.4373 149.976 12.272 150.872 12.272C151.645 12.272 152.317 12.4107 152.888 12.688C153.459 12.96 153.899 13.344 154.208 13.84C154.523 14.3307 154.68 14.904 154.68 15.56C154.68 16.1573 154.571 16.6693 154.352 17.096C154.133 17.5227 153.843 17.8933 153.48 18.208C153.123 18.5227 152.728 18.8027 152.296 19.048C151.869 19.288 151.44 19.52 151.008 19.744C150.581 19.968 150.189 20.2053 149.832 20.456C149.475 20.7067 149.187 20.992 148.968 21.312C148.749 21.632 148.64 22.0133 148.64 22.456V22.688H154.744V24H146.992ZM156.451 15.8C156.451 15.0533 156.633 14.4187 156.995 13.896C157.358 13.368 157.841 12.9653 158.443 12.688C159.051 12.4107 159.721 12.272 160.451 12.272C161.251 12.272 161.958 12.3893 162.571 12.624C163.185 12.8533 163.665 13.1893 164.011 13.632C164.358 14.0747 164.531 14.616 164.531 15.256C164.531 15.832 164.35 16.352 163.987 16.816C163.625 17.2747 163.07 17.632 162.323 17.888C163.086 18.096 163.697 18.448 164.155 18.944C164.614 19.4347 164.843 20.056 164.843 20.808C164.843 21.512 164.649 22.1173 164.259 22.624C163.875 23.1307 163.347 23.5173 162.675 23.784C162.003 24.0507 161.241 24.1813 160.387 24.176C159.593 24.1707 158.891 24.024 158.283 23.736C157.681 23.448 157.206 23.0453 156.859 22.528C156.513 22.0053 156.326 21.3867 156.299 20.672H157.779C157.891 21.392 158.185 21.944 158.659 22.328C159.134 22.712 159.729 22.904 160.443 22.904C161.297 22.904 161.977 22.7093 162.483 22.32C162.99 21.9307 163.243 21.4213 163.243 20.792C163.243 20.328 163.113 19.936 162.851 19.616C162.595 19.296 162.246 19.0533 161.803 18.888C161.366 18.7173 160.875 18.6293 160.331 18.624L159.291 18.6V17.344L160.283 17.32C160.79 17.3093 161.243 17.2133 161.643 17.032C162.043 16.8453 162.358 16.6027 162.587 16.304C162.822 16 162.939 15.6667 162.939 15.304C162.939 14.824 162.721 14.4053 162.283 14.048C161.851 13.6853 161.238 13.504 160.443 13.504C160.027 13.504 159.63 13.584 159.251 13.744C158.873 13.904 158.561 14.1547 158.315 14.496C158.07 14.832 157.939 15.2667 157.923 15.8H156.451ZM169.769 24.16C169.188 24.16 168.652 24.0693 168.161 23.888C167.671 23.7067 167.26 23.4293 166.929 23.056C166.604 22.6773 166.401 22.1893 166.321 21.592H167.665C167.772 22.0773 168.015 22.4427 168.393 22.688C168.777 22.9333 169.233 23.056 169.761 23.056C170.316 23.056 170.764 22.952 171.105 22.744C171.447 22.536 171.617 22.216 171.617 21.784C171.617 21.2027 171.252 20.824 170.521 20.648L168.809 20.224C168.137 20.064 167.601 19.8133 167.201 19.472C166.807 19.1307 166.609 18.6533 166.609 18.04C166.604 17.3147 166.865 16.7227 167.393 16.264C167.921 15.8 168.711 15.568 169.761 15.568C170.657 15.568 171.38 15.7707 171.929 16.176C172.484 16.5813 172.772 17.1707 172.793 17.944H171.489C171.431 17.5493 171.252 17.2373 170.953 17.008C170.655 16.7733 170.252 16.656 169.745 16.656C169.217 16.656 168.788 16.7627 168.457 16.976C168.127 17.184 167.961 17.5093 167.961 17.952C167.961 18.2453 168.079 18.4773 168.313 18.648C168.548 18.8133 168.895 18.952 169.353 19.064L171.009 19.48C171.516 19.6133 171.911 19.8027 172.193 20.048C172.476 20.2933 172.673 20.5627 172.785 20.856C172.897 21.1493 172.953 21.432 172.953 21.704C172.953 22.4667 172.673 23.0667 172.113 23.504C171.553 23.9413 170.772 24.16 169.769 24.16Z" fill="#191C1F"/>
</svg>
