<svg width="72" height="13" viewBox="0 0 72 13" fill="none" xmlns="http://www.w3.org/2000/svg">
<path fill-rule="evenodd" clip-rule="evenodd" d="M41.6066 2.37466V0.732605C41.6066 0.479982 41.7835 0.328407 42.0108 0.328407H49.3368C49.5642 0.328407 49.7663 0.505245 49.7663 0.732605V2.12203C49.7663 2.34939 49.5642 2.65254 49.2105 3.15779L45.4212 8.56392C46.8359 8.53866 48.3263 8.74076 49.5894 9.4481C49.8673 9.59968 49.9431 9.8523 49.9684 10.0797V11.8228C49.9684 12.0754 49.7158 12.3533 49.4379 12.2017C47.1896 11.0144 44.1834 10.8881 41.7077 12.227C41.4551 12.3533 41.1772 12.1006 41.1772 11.848V10.1807C41.1772 9.92808 41.1772 9.47336 41.4551 9.06917L45.8507 2.77885H42.0361C41.8087 2.77885 41.6066 2.60202 41.6066 2.37466ZM14.9046 12.5554H12.6816C12.4795 12.5301 12.3026 12.3785 12.2774 12.1764V0.757869C12.2774 0.530508 12.4795 0.353671 12.7068 0.353671H14.7783C15.0057 0.353671 15.1572 0.530507 15.1825 0.732605V2.22308H15.233C15.7635 0.783128 16.7993 0.101048 18.1634 0.101048C19.5528 0.101048 20.437 0.783128 21.0433 2.22308C21.5738 0.783128 22.8117 0.101048 24.1253 0.101048C25.06 0.101048 26.0705 0.479982 26.702 1.36416C27.4094 2.32413 27.2578 3.71356 27.2578 4.95141V12.1764C27.2578 12.4038 27.0557 12.5806 26.8283 12.5806H24.6305C24.4032 12.5554 24.2263 12.3785 24.2263 12.1764V6.11347C24.2263 5.63349 24.2769 4.4209 24.1758 3.96618C23.999 3.20831 23.519 2.98095 22.8622 2.98095C22.3317 2.98095 21.7506 3.33462 21.5233 3.91566C21.2959 4.49669 21.3212 5.45665 21.3212 6.11347V12.1764C21.3212 12.4038 21.1191 12.5806 20.8917 12.5806H18.6687C18.4413 12.5554 18.2645 12.3785 18.2645 12.1764V6.11347C18.2645 4.85036 18.4666 2.95569 16.9003 2.95569C15.3088 2.95569 15.3593 4.77457 15.3593 6.11347V12.1764C15.3341 12.3785 15.1572 12.5554 14.9046 12.5554ZM56.0818 0.101048C59.3911 0.101048 61.1847 2.93043 61.1847 6.54294C61.1847 10.0291 59.2143 12.808 56.0818 12.808C52.8483 12.808 51.0799 9.97861 51.0799 6.44189C51.0547 2.8799 52.8483 0.101048 56.0818 0.101048ZM56.0818 2.45044C54.4398 2.45044 54.3387 4.69879 54.3387 6.08822C54.3387 7.47764 54.3135 10.4586 56.0565 10.4586C57.7744 10.4586 57.8754 8.05868 57.8754 6.59346C57.8754 5.6335 57.8249 4.47143 57.547 3.56199C57.2944 2.75359 56.7891 2.45044 56.0818 2.45044ZM65.454 12.5554H63.231C63.0036 12.5301 62.8268 12.3533 62.8268 12.1512V0.707342C62.852 0.505243 63.0289 0.328407 63.2562 0.328407H65.3277C65.5298 0.328407 65.6814 0.479985 65.7319 0.656822V2.39992H65.7824C66.414 0.833656 67.2729 0.101048 68.8139 0.101048C69.7991 0.101048 70.7843 0.454717 71.4159 1.43995C71.9969 2.34939 71.9969 3.89039 71.9969 5.00193V12.2017C71.9716 12.4038 71.7948 12.5554 71.5675 12.5554H69.3444C69.1423 12.5301 68.9655 12.3785 68.9402 12.2017V5.98716C68.9402 4.72405 69.0918 2.90517 67.5508 2.90517C67.0203 2.90517 66.515 3.25884 66.2624 3.81461C65.9593 4.52195 65.9087 5.20403 65.9087 5.98716V12.1512C65.8835 12.3785 65.6814 12.5554 65.454 12.5554ZM35.7711 7.09871C35.7711 7.95763 35.7964 8.69023 35.3669 9.47337C35.0132 10.1049 34.4575 10.4839 33.8259 10.4839C32.967 10.4839 32.4618 9.82704 32.4618 8.86707C32.4618 6.9724 34.1543 6.61872 35.7711 6.61872V7.09871ZM38.0194 12.5301C37.8678 12.6564 37.6657 12.6817 37.4889 12.5806C36.7563 11.9743 36.6047 11.6712 36.2005 11.0902C34.988 12.328 34.1038 12.7069 32.5375 12.7069C30.6682 12.7069 29.203 11.5449 29.203 9.24601C29.203 7.42712 30.1882 6.21452 31.5776 5.60823C32.7902 5.07772 34.4827 4.97668 35.7711 4.8251V4.54722C35.7711 4.01671 35.8216 3.38515 35.4932 2.93043C35.2153 2.52623 34.7101 2.34939 34.2554 2.34939C33.3965 2.34939 32.6386 2.77886 32.4618 3.6883C32.4112 3.8904 32.2849 4.09249 32.0828 4.09249L29.9356 3.86513C29.7587 3.81461 29.5566 3.6883 29.6072 3.41041C30.1124 0.783132 32.4618 0 34.5838 0C35.67 0 37.0847 0.277884 37.9436 1.11154C39.0299 2.12203 38.9289 3.4862 38.9289 4.95141V8.41235C38.9289 9.4481 39.3583 9.90282 39.7625 10.4839C39.9141 10.686 39.9393 10.9386 39.7625 11.0649C39.2825 11.4438 38.4741 12.1512 38.0194 12.5301ZM6.5934 7.09871C6.5934 7.95763 6.61866 8.69023 6.18921 9.47337C5.83554 10.1049 5.27977 10.4839 4.64822 10.4839C3.78931 10.4839 3.28407 9.82704 3.28407 8.86707C3.28407 6.9724 4.97663 6.61872 6.5934 6.61872V7.09871ZM8.81646 12.5301C8.66489 12.6564 8.4628 12.6817 8.28596 12.5806C7.55336 11.9743 7.40179 11.6712 6.99759 11.0902C5.78501 12.328 4.90084 12.7069 3.33459 12.7069C1.4652 12.7069 0 11.5449 0 9.24601C0 7.42712 0.985219 6.21452 2.37463 5.60823C3.58721 5.07772 5.27977 4.97668 6.56814 4.8251V4.54722C6.56814 4.01671 6.61866 3.38515 6.29025 2.93043C6.01237 2.52623 5.50713 2.34939 5.05241 2.34939C4.1935 2.34939 3.43564 2.77886 3.25881 3.6883C3.20828 3.8904 3.08197 4.09249 2.87987 4.09249L0.732599 3.86513C0.555764 3.81461 0.353671 3.6883 0.404195 3.41041C0.909436 0.783132 3.25881 0 5.38082 0C6.46709 0 7.88177 0.277884 8.74068 1.11154C9.82695 2.12203 9.7259 3.4862 9.7259 4.95141V8.41235C9.7259 9.4481 10.1554 9.90282 10.5595 10.4839C10.7111 10.686 10.7364 10.9386 10.5595 11.0649C10.0796 11.4438 9.27118 12.1512 8.81646 12.5301Z" fill="white"/>
</svg>
