<svg width="21" height="18" viewBox="0 0 21 18" fill="none" xmlns="http://www.w3.org/2000/svg">
<path d="M10.125 17.25C10.125 17.25 0.75 12 0.75 5.62501C0.75 4.49803 1.14046 3.40585 1.85496 2.53431C2.56945 1.66277 3.56384 1.0657 4.66893 0.844677C5.77403 0.623658 6.92157 0.792346 7.91631 1.32204C8.91105 1.85174 9.69155 2.70972 10.125 3.75001C10.5585 2.70972 11.3389 1.85174 12.3337 1.32204C13.3284 0.792346 14.476 0.623658 15.5811 0.844677C16.6862 1.0657 17.6805 1.66277 18.395 2.53431C19.1095 3.40585 19.5 4.49803 19.5 5.62501C19.5 12 10.125 17.25 10.125 17.25Z" stroke="#191C1F" stroke-width="1.5" stroke-linecap="round" stroke-linejoin="round"/>
</svg>
